<?xml version="1.0" encoding="UTF-8" standalone="no"?>
<!-- Created with Inkscape (http://www.inkscape.org/) -->

<svg
   xmlns:dc="http://purl.org/dc/elements/1.1/"
   xmlns:cc="http://creativecommons.org/ns#"
   xmlns:rdf="http://www.w3.org/1999/02/22-rdf-syntax-ns#"
   xmlns:svg="http://www.w3.org/2000/svg"
   xmlns="http://www.w3.org/2000/svg"
   xmlns:sodipodi="http://sodipodi.sourceforge.net/DTD/sodipodi-0.dtd"
   xmlns:inkscape="http://www.inkscape.org/namespaces/inkscape"
   enable-background="new"
   inkscape:version="0.47pre4 r22446"
   version="1.1"
   id="svg2"
   height="1052.3622047"
   width="744.09448819"
   sodipodi:docname="theta.pdf">
  <sodipodi:namedview
     id="base"
     pagecolor="#ffffff"
     bordercolor="#666666"
     borderopacity="1.0"
     inkscape:pageopacity="0.0"
     inkscape:pageshadow="2"
     inkscape:zoom="3.959798"
     inkscape:cx="54.216122"
     inkscape:cy="903.40305"
     inkscape:document-units="px"
     inkscape:current-layer="g3624"
     showgrid="false"
     inkscape:window-width="2048"
     inkscape:window-height="1078"
     inkscape:window-x="0"
     inkscape:window-y="25"
     inkscape:window-maximized="1"
     showguides="false"
     inkscape:guide-bbox="true"
     inkscape:snap-global="false">
    <sodipodi:guide
       orientation="0,1"
       position="79.553571,905.625"
       id="guide3777" />
    <sodipodi:guide
       orientation="0,1"
       position="98.035714,932.85714"
       id="guide3779" />
    <sodipodi:guide
       orientation="0,1"
       position="99.989318,938.47906"
       id="guide3652" />
    <sodipodi:guide
       orientation="0,1"
       position="99.247487,935.40125"
       id="guide3654" />
    <sodipodi:guide
       orientation="0,1"
       position="100.51018,903.07637"
       id="guide3656" />
    <sodipodi:guide
       orientation="0,1"
       position="101.01525,900.04591"
       id="guide3658" />
  </sodipodi:namedview>
  <defs
     id="defs4">
    <inkscape:perspective
       id="perspective10"
       inkscape:persp3d-origin="372.04724 : 350.78739 : 1"
       inkscape:vp_z="744.09448 : 526.18109 : 1"
       inkscape:vp_y="0 : 1000 : 0"
       inkscape:vp_x="0 : 526.18109 : 1"
       sodipodi:type="inkscape:persp3d" />
    <inkscape:perspective
       sodipodi:type="inkscape:persp3d"
       inkscape:vp_x="0 : 0.5 : 1"
       inkscape:vp_y="0 : 1000 : 0"
       inkscape:vp_z="1 : 0.5 : 1"
       inkscape:persp3d-origin="0.5 : 0.33333333 : 1"
       id="perspective3614" />
    <inkscape:perspective
       id="perspective3789"
       inkscape:persp3d-origin="0.5 : 0.33333333 : 1"
       inkscape:vp_z="1 : 0.5 : 1"
       inkscape:vp_y="0 : 1000 : 0"
       inkscape:vp_x="0 : 0.5 : 1"
       sodipodi:type="inkscape:persp3d" />
    <inkscape:perspective
       id="perspective2835"
       inkscape:persp3d-origin="0.5 : 0.33333333 : 1"
       inkscape:vp_z="1 : 0.5 : 1"
       inkscape:vp_y="0 : 1000 : 0"
       inkscape:vp_x="0 : 0.5 : 1"
       sodipodi:type="inkscape:persp3d" />
  </defs>
  <metadata
     id="metadata7">
    <rdf:RDF>
      <cc:Work
         rdf:about="">
        <dc:format>image/svg+xml</dc:format>
        <dc:type
           rdf:resource="http://purl.org/dc/dcmitype/StillImage" />
        <dc:title></dc:title>
      </cc:Work>
    </rdf:RDF>
  </metadata>
  <g
     id="layer1"
     inkscape:groupmode="layer"
     inkscape:label="Schrift"
     style="display:none"
     sodipodi:insensitive="true">
    <rect
       style="fill:none;stroke:#4d4d4d;stroke-width:1.94881892;stroke-miterlimit:4;stroke-opacity:1;stroke-dasharray:none"
       y="113.94053"
       x="23.393173"
       height="38.312569"
       width="126.8414"
       id="rect2824" />
    <rect
       y="116.86227"
       x="57.081573"
       height="32.483303"
       width="90.104599"
       id="rect3602"
       style="fill:#aa0000;stroke:none" />
    <text
       xml:space="preserve"
       style="font-size:40px;font-style:normal;font-variant:normal;font-weight:normal;font-stretch:normal;fill:#f9f9f9;fill-opacity:1;stroke:none;font-family:Trebuchet MS;-inkscape-font-specification:Trebuchet MS"
       x="59.472736"
       y="146.25537"
       id="text2864"><tspan
         sodipodi:role="line"
         id="tspan2866"
         x="59.472736"
         y="146.25537"
         style="font-size:36px;fill:#f9f9f9">theta</tspan></text>
    <text
       xml:space="preserve"
       style="font-size:40px;font-style:normal;font-variant:normal;font-weight:normal;font-stretch:normal;fill:#000000;fill-opacity:1;stroke:none;font-family:Georgia;-inkscape-font-specification:Georgia"
       x="46.972092"
       y="195.24776"
       id="text2868"><tspan
         sodipodi:role="line"
         id="tspan2870"
         x="46.972092"
         y="195.24776" /></text>
    <text
       xml:space="preserve"
       style="font-size:40px;font-style:normal;font-variant:normal;font-weight:normal;font-stretch:normal;fill:#4d4d4d;fill-opacity:1;stroke:none;font-family:Georgia;-inkscape-font-specification:Georgia"
       x="25.63262"
       y="146.88669"
       id="text2872"><tspan
         sodipodi:role="line"
         id="tspan2874"
         x="25.63262"
         y="146.88669">Θ</tspan></text>
  </g>
  <g
     inkscape:label="als pfad"
     inkscape:groupmode="layer"
     id="g3624"
     style="display:inline"
     sodipodi:insensitive="true">
    <rect
       id="rect3626"
       width="126.8414"
       height="38.312569"
       x="23.393173"
       y="113.94053"
       style="fill:none;stroke:#4d4d4d;stroke-width:1.94881892;stroke-miterlimit:4;stroke-opacity:1;stroke-dasharray:none" />
    <rect
       style="fill:#aa0000;stroke:none"
       id="rect3628"
       width="90.104599"
       height="32.483303"
       x="57.081573"
       y="116.86227" />
    <g
       style="font-size:40px;font-style:normal;font-variant:normal;font-weight:normal;font-stretch:normal;fill:#f9f9f9;fill-opacity:1;stroke:none;font-family:Trebuchet MS;-inkscape-font-specification:Trebuchet MS"
       id="text3630">
      <path
         d="m 63.041096,130.06592 -2.179688,0 0,-2.63672 2.179688,0 0,-3.9375 3.339843,-1.2832 0,5.2207 5.167969,0 0,2.63672 -5.167969,0 0,9.35156 c -6e-6,1.58204 0.263665,2.70704 0.791016,3.375 0.539054,0.66797 1.400382,1.00196 2.583984,1.00195 0.855458,1e-5 1.740223,-0.21679 2.654297,-0.65039 l 0.492188,2.93555 c -1.382825,0.35156 -2.900401,0.52734 -4.552735,0.52734 -1.488288,0 -2.748053,-0.55078 -3.779296,-1.65234 -1.019536,-1.11328 -1.529301,-2.51367 -1.529297,-4.20117 l 0,-10.6875"
         style="font-size:36px;fill:#f9f9f9"
         id="path3643" />
      <path
         d="m 87.720783,146.25537 0,-11.83008 c -1.4e-5,-1.40623 -0.345717,-2.51365 -1.037109,-3.32226 -0.691419,-0.80858 -1.664074,-1.21288 -2.917969,-1.21289 -0.808603,1e-5 -1.623055,0.24025 -2.443359,0.7207 -0.808601,0.46877 -1.429694,1.01955 -1.863282,1.65234 l 0,13.99219 -3.339843,0 0,-26.54297 3.339843,0 0,9.79102 c 0.445307,-0.69139 1.16015,-1.26561 2.144532,-1.72266 0.996085,-0.46873 2.021474,-0.7031 3.076172,-0.70312 1.992174,2e-5 3.550766,0.65627 4.675781,1.96875 1.136702,1.31251 1.705061,3.10548 1.705078,5.3789 l 0,11.83008 -3.339844,0"
         style="font-size:36px;fill:#f9f9f9"
         id="path3645" />
      <path
         d="m 111.66219,137.16748 -13.570313,0 c -5e-6,2.20313 0.60351,3.89649 1.810547,5.08008 1.066396,1.03125 2.437486,1.54688 4.113286,1.54687 1.91014,1e-5 3.50389,-0.55663 4.78125,-1.66992 l 1.40625,2.4082 c -0.51565,0.51563 -1.30666,0.96094 -2.37305,1.33594 -1.33595,0.49219 -2.82423,0.73828 -4.46485,0.73828 -2.36719,0 -4.376954,-0.80273 -6.029292,-2.4082 -1.839846,-1.76953 -2.759767,-4.14843 -2.759766,-7.13672 -10e-7,-3.10545 0.943357,-5.59569 2.830078,-7.4707 1.687494,-1.67576 3.68554,-2.51365 5.99414,-2.51367 2.68358,2e-5 4.7871,0.75587 6.31055,2.26757 1.47654,1.45315 2.21482,3.38088 2.21484,5.78321 -2e-5,0.73829 -0.0879,1.41798 -0.26367,2.03906 m -8.10352,-7.27734 c -1.48829,1e-5 -2.73633,0.48048 -3.744137,1.4414 -0.960943,0.91408 -1.505864,2.0508 -1.634765,3.41016 l 10.423832,0 c -2e-5,-1.34764 -0.42189,-2.47264 -1.26563,-3.375 -0.92579,-0.98436 -2.18556,-1.47655 -3.7793,-1.47656"
         style="font-size:36px;fill:#f9f9f9"
         id="path3647" />
      <path
         d="m 116.61922,130.06592 -2.17969,0 0,-2.63672 2.17969,0 0,-3.9375 3.33984,-1.2832 0,5.2207 5.16797,0 0,2.63672 -5.16797,0 0,9.35156 c 0,1.58204 0.26367,2.70704 0.79102,3.375 0.53905,0.66797 1.40038,1.00196 2.58398,1.00195 0.85546,1e-5 1.74023,-0.21679 2.6543,-0.65039 l 0.49219,2.93555 c -1.38283,0.35156 -2.9004,0.52734 -4.55274,0.52734 -1.48828,0 -2.74805,-0.55078 -3.77929,-1.65234 -1.01954,-1.11328 -1.5293,-2.51367 -1.5293,-4.20117 l 0,-10.6875"
         style="font-size:36px;fill:#f9f9f9"
         id="path3649" />
      <path
         d="m 140.33211,144.09326 c -1.33595,1.67578 -3.38087,2.51367 -6.13476,2.51367 -1.47657,0 -2.75977,-0.5332 -3.84961,-1.59961 -1.07813,-1.07812 -1.61719,-2.41405 -1.61719,-4.00781 0,-1.91015 0.83203,-3.52147 2.49609,-4.83398 1.67578,-1.32421 3.80859,-1.98632 6.39844,-1.98633 0.70311,1e-5 1.49999,0.15235 2.39063,0.45703 -2e-5,-3.04686 -1.35939,-4.5703 -4.07813,-4.57031 -2.08594,1e-5 -3.69141,0.56251 -4.81641,1.6875 l -1.40625,-2.79492 c 0.63281,-0.51561 1.50586,-0.95506 2.61914,-1.31836 1.125,-0.37498 2.19726,-0.56248 3.2168,-0.5625 2.73046,2e-5 4.71093,0.62111 5.94141,1.86328 1.24217,1.2422 1.86326,3.21681 1.86328,5.92383 l 0,6.75 c -2e-5,1.65234 0.49217,2.7539 1.47656,3.30468 l 0,1.66993 c -1.35939,0 -2.37892,-0.19336 -3.05859,-0.58008 -0.66798,-0.38672 -1.14845,-1.02539 -1.44141,-1.91602 m -0.3164,-7.08398 c -1.0547,-0.23437 -1.79298,-0.35156 -2.21485,-0.35157 -1.68751,1e-5 -3.06446,0.43361 -4.13086,1.30079 -1.06641,0.86719 -1.59961,1.89258 -1.59961,3.07617 0,1.95703 1.15429,2.93555 3.46289,2.93554 1.68749,1e-5 3.18163,-0.80273 4.48243,-2.4082 l 0,-4.55273"
         style="font-size:36px;fill:#f9f9f9"
         id="path3651" />
    </g>
    <text
       id="text3634"
       y="195.24776"
       x="46.972092"
       style="font-size:40px;font-style:normal;font-variant:normal;font-weight:normal;font-stretch:normal;fill:#000000;fill-opacity:1;stroke:none;font-family:Georgia;-inkscape-font-specification:Georgia"
       xml:space="preserve"><tspan
         y="195.24776"
         x="46.972092"
         id="tspan3636"
         sodipodi:role="line" /></text>
    <g
       style="font-size:40px;font-style:normal;font-variant:normal;font-weight:normal;font-stretch:normal;fill:#4d4d4d;fill-opacity:1;stroke:none;font-family:Georgia;-inkscape-font-specification:Georgia"
       id="text3638">
      <path
         d="m 49.929495,122.45309 c 1.223933,1.27607 2.180963,2.81904 2.871094,4.62891 0.690076,1.79689 1.035128,3.78908 1.035156,5.97656 -2.8e-5,2.20054 -0.35159,4.19923 -1.054688,5.9961 -0.703151,1.79688 -1.679713,3.32682 -2.929687,4.58984 -1.210961,1.25 -2.617209,2.21354 -4.21875,2.89063 -1.601581,0.67708 -3.307309,1.01562 -5.117188,1.01562 -1.927096,0 -3.710948,-0.35807 -5.351562,-1.07422 -1.627612,-0.72916 -3.02735,-1.73828 -4.199219,-3.02734 -1.171879,-1.26302 -2.096357,-2.79296 -2.773437,-4.58985 -0.664065,-1.80988 -0.996096,-3.74347 -0.996094,-5.80078 -2e-6,-2.25258 0.35156,-4.25779 1.054687,-6.01562 0.703122,-1.77081 1.673173,-3.30076 2.910157,-4.58985 1.223951,-1.27601 2.643221,-2.25257 4.257812,-2.92968 1.627593,-0.67706 3.32681,-1.0156 5.097656,-1.01563 1.835921,3e-5 3.56769,0.34508 5.195313,1.03516 1.627582,0.69013 3.033831,1.66018 4.21875,2.91015 m -2.871094,19.66797 c 0.729145,-1.18489 1.262998,-2.52603 1.601563,-4.02343 0.338518,-1.49739 0.507789,-3.17708 0.507812,-5.03907 -2.3e-5,-1.888 -0.188825,-3.63279 -0.566406,-5.23437 -0.377627,-1.61456 -0.931012,-2.96873 -1.660156,-4.0625 -0.729188,-1.11977 -1.634135,-1.98565 -2.714844,-2.59766 -1.067726,-0.61195 -2.304704,-0.91794 -3.710938,-0.91797 -1.562513,3e-5 -2.897147,0.3581 -4.003906,1.07422 -1.09376,0.71617 -1.985686,1.6732 -2.675781,2.8711 -0.677091,1.15887 -1.178393,2.50653 -1.503906,4.04296 -0.312507,1.53648 -0.468757,3.14455 -0.46875,4.82422 -7e-6,1.91408 0.182285,3.63934 0.546875,5.17578 0.364576,1.52345 0.891919,2.83204 1.582031,3.92579 0.716137,1.14583 1.608063,2.04427 2.675781,2.69531 1.080717,0.63802 2.363268,0.95703 3.847656,0.95703 1.445297,0 2.721337,-0.33203 3.828125,-0.99609 1.119772,-0.66406 2.024719,-1.5625 2.714844,-2.69532 m -0.996094,-4.6289 -1.289062,0 c -0.104186,-0.55989 -0.221373,-1.02864 -0.351563,-1.40625 -0.130227,-0.39062 -0.279966,-0.70963 -0.449218,-0.95703 -0.143248,-0.23437 -0.488299,-0.39062 -1.035157,-0.46875 -0.546891,-0.0911 -1.354182,-0.13671 -2.421875,-0.13672 -1.35418,10e-6 -2.233085,0.0521 -2.636718,0.15625 -0.403658,0.0911 -0.677095,0.24089 -0.820313,0.44922 -0.208344,0.29949 -0.371105,0.65105 -0.488281,1.05468 -0.117198,0.39064 -0.221365,0.82684 -0.3125,1.3086 l -1.289063,0 0,-8.88672 1.289063,0 c 0.09113,0.52085 0.195302,0.96356 0.3125,1.32812 0.130197,0.3646 0.292957,0.69663 0.488281,0.9961 0.143218,0.23439 0.436186,0.39715 0.878906,0.48828 0.455717,0.0781 1.315091,0.1172 2.578125,0.11719 1.171859,1e-5 2.005192,-0.0391 2.5,-0.11719 0.494774,-0.0911 0.813784,-0.25389 0.957032,-0.48828 0.234356,-0.36457 0.403627,-0.73566 0.507812,-1.11328 0.117169,-0.37759 0.214825,-0.78124 0.292969,-1.21094 l 1.289062,0 0,8.88672"
         id="path3654" />
    </g>
  </g>
</svg>
